<mxfile host="app.diagrams.net" agent="Mozilla/5.0 (Windows NT 10.0; Win64; x64; rv:133.0) Gecko/20100101 Firefox/133.0" version="25.0.3">
  <diagram name="Page-1" id="ZuebNN4evjgqsygF_STK">
    <mxGraphModel dx="1185" dy="632" grid="1" gridSize="10" guides="1" tooltips="1" connect="1" arrows="1" fold="1" page="1" pageScale="1" pageWidth="850" pageHeight="1100" math="0" shadow="0">
      <root>
        <mxCell id="0" />
        <mxCell id="1" parent="0" />
        <mxCell id="Zckgc4aJgXvJnve9Ww1w-3" value="" style="edgeStyle=orthogonalEdgeStyle;rounded=0;orthogonalLoop=1;jettySize=auto;html=1;" edge="1" parent="1" source="Zckgc4aJgXvJnve9Ww1w-1" target="Zckgc4aJgXvJnve9Ww1w-2">
          <mxGeometry relative="1" as="geometry" />
        </mxCell>
        <mxCell id="Zckgc4aJgXvJnve9Ww1w-1" value="ADX Plays Tekken 8" style="rounded=1;whiteSpace=wrap;html=1;" vertex="1" parent="1">
          <mxGeometry x="365" y="40" width="120" height="60" as="geometry" />
        </mxCell>
        <mxCell id="Zckgc4aJgXvJnve9Ww1w-5" value="" style="edgeStyle=orthogonalEdgeStyle;rounded=0;orthogonalLoop=1;jettySize=auto;html=1;" edge="1" parent="1" source="Zckgc4aJgXvJnve9Ww1w-2" target="Zckgc4aJgXvJnve9Ww1w-4">
          <mxGeometry relative="1" as="geometry" />
        </mxCell>
        <mxCell id="Zckgc4aJgXvJnve9Ww1w-18" value="" style="edgeStyle=orthogonalEdgeStyle;rounded=0;orthogonalLoop=1;jettySize=auto;html=1;" edge="1" parent="1" source="Zckgc4aJgXvJnve9Ww1w-2" target="Zckgc4aJgXvJnve9Ww1w-16">
          <mxGeometry relative="1" as="geometry" />
        </mxCell>
        <mxCell id="Zckgc4aJgXvJnve9Ww1w-2" value="Game start" style="ellipse;whiteSpace=wrap;html=1;rounded=1;" vertex="1" parent="1">
          <mxGeometry x="385" y="170" width="80" height="80" as="geometry" />
        </mxCell>
        <mxCell id="Zckgc4aJgXvJnve9Ww1w-9" value="" style="edgeStyle=orthogonalEdgeStyle;rounded=0;orthogonalLoop=1;jettySize=auto;html=1;" edge="1" parent="1" source="Zckgc4aJgXvJnve9Ww1w-4" target="Zckgc4aJgXvJnve9Ww1w-8">
          <mxGeometry relative="1" as="geometry" />
        </mxCell>
        <mxCell id="Zckgc4aJgXvJnve9Ww1w-4" value="Do attack A" style="whiteSpace=wrap;html=1;rounded=1;" vertex="1" parent="1">
          <mxGeometry x="360" y="270" width="120" height="60" as="geometry" />
        </mxCell>
        <mxCell id="Zckgc4aJgXvJnve9Ww1w-15" value="" style="edgeStyle=orthogonalEdgeStyle;rounded=0;orthogonalLoop=1;jettySize=auto;html=1;" edge="1" parent="1" source="Zckgc4aJgXvJnve9Ww1w-8" target="Zckgc4aJgXvJnve9Ww1w-14">
          <mxGeometry relative="1" as="geometry" />
        </mxCell>
        <mxCell id="Zckgc4aJgXvJnve9Ww1w-8" value="Do attack B" style="whiteSpace=wrap;html=1;rounded=1;" vertex="1" parent="1">
          <mxGeometry x="360" y="390" width="120" height="60" as="geometry" />
        </mxCell>
        <mxCell id="Zckgc4aJgXvJnve9Ww1w-17" value="" style="edgeStyle=orthogonalEdgeStyle;rounded=0;orthogonalLoop=1;jettySize=auto;html=1;" edge="1" parent="1" source="Zckgc4aJgXvJnve9Ww1w-14" target="Zckgc4aJgXvJnve9Ww1w-16">
          <mxGeometry relative="1" as="geometry" />
        </mxCell>
        <mxCell id="Zckgc4aJgXvJnve9Ww1w-14" value="Do attack C" style="whiteSpace=wrap;html=1;rounded=1;" vertex="1" parent="1">
          <mxGeometry x="360" y="530" width="120" height="60" as="geometry" />
        </mxCell>
        <mxCell id="Zckgc4aJgXvJnve9Ww1w-16" value="Loop" style="triangle;whiteSpace=wrap;html=1;rounded=1;" vertex="1" parent="1">
          <mxGeometry x="575" y="170" width="60" height="80" as="geometry" />
        </mxCell>
      </root>
    </mxGraphModel>
  </diagram>
</mxfile>
